# xmcd
#
# Track frame offsets: 
#        150
#        106975
#        127230
#        151935
#        176095
#
# Disc length: 3128 seconds
#
# Revision: 4
# Processed by: cddbd v1.5.2PL0 Copyright (c) Steve Scherf et al.
# Submitted via: ExactAudioCopy v0.99pb4
#
DISCID=3e0c3605
DTITLE=Pink Floyd - Atom Heart Mother
DYEAR=1970
DGENRE=Psychedelic Rock
TTITLE0=Atom Heart Mother
TTITLE1=If
TTITLE2=Summer '68
TTITLE3=Fat Old Sun
TTITLE4=Alan's Psychedelic Breakfast
EXTD=Produced by: Pink Floyd [EMI] YEAR: 1970
EXTT0=Mason - Gilmour - Waters - Wright - Geesin
EXTT1=Roger Waters
EXTT2=Richard Wright
EXTT3=David Gilmour
EXTT4=Waters - Mason - Gilmour - Wright
PLAYORDER=
